<svg id="visual" viewBox="0 0 900 600" width="900" height="600" xmlns="http://www.w3.org/2000/svg" xmlns:xlink="http://www.w3.org/1999/xlink" version="1.1"><rect x="0" y="0" width="900" height="600" fill="#FF0066"></rect><g transform="translate(451.86172506757214 310.05457450564694)"><path d="M140.3 -228.1C180.5 -219.7 211.1 -179.6 211.9 -136.3C212.7 -93 183.9 -46.5 183.3 -0.3C182.7 45.8 210.4 91.7 197.1 113.3C183.8 135 129.4 132.4 89.7 149.4C50 166.3 25 202.6 -3.6 208.8C-32.2 215 -64.3 191.1 -105.2 174.8C-146 158.6 -195.6 150 -210.3 122.2C-225.1 94.3 -205 47.2 -199.7 3.1C-194.3 -41 -203.7 -82 -194.6 -119.7C-185.5 -157.3 -158 -191.7 -122.5 -202.9C-87 -214 -43.5 -202 3.2 -207.6C50 -213.3 100 -236.5 140.3 -228.1" fill="#BB004B"></path></g></svg>