<svg id="visual" viewBox="0 0 900 600" width="900" height="600" xmlns="http://www.w3.org/2000/svg" xmlns:xlink="http://www.w3.org/1999/xlink" version="1.1"><rect x="0" y="0" width="900" height="600" fill="#ffffff"></rect><path d="M0 428L129 450L257 400L386 403L514 467L643 419L771 423L900 405L900 601L771 601L643 601L514 601L386 601L257 601L129 601L0 601Z" fill="#e5e5e5"></path><path d="M0 426L129 439L257 461L386 431L514 438L643 447L771 483L900 434L900 601L771 601L643 601L514 601L386 601L257 601L129 601L0 601Z" fill="#d5d5d5"></path><path d="M0 498L129 550L257 494L386 504L514 497L643 507L771 503L900 507L900 601L771 601L643 601L514 601L386 601L257 601L129 601L0 601Z" fill="#c5c5c5"></path></svg>