<svg xmlns="http://www.w3.org/2000/svg" viewBox="0 0 900 600"><path fill="#ff914d" d="m0 425 15-5c15-6 45-16 75-11 30 6 60 28 90 26 30-3 60-30 90-38s60 3 90 8c30 6 60 5 90 12s60 21 90 28 60 6 90 9c30 2 60 7 90 1s60-22 90-30c30-7 60-6 75-5l15 1v180H0Z"/><path fill="#ff7c50" d="m0 431 15 9c15 10 45 28 75 31s60-10 90-17c30-6 60-7 90-7s60 0 90 9 60 28 90 28c30 1 60-17 90-22s60 2 90 4 60-2 90-8l90-21c30-6 60-8 75-10l15-1v175H0Z"/><path fill="#ff6657" d="m0 483 15 4c15 3 45 11 75 9 30-1 60-11 90-7s60 21 90 28 60 2 90-7 60-22 90-30c30-7 60-8 90-6 30 1 60 6 90 12l90 21c30 8 60 15 90 14 30-2 60-14 75-19l15-6v105H0Z"/><path fill="#ff4d62" d="m0 518 15 2c15 2 45 6 75 14s60 20 90 24 60 0 90-3c30-2 60-4 90-2 30 1 60 6 90 8l90 2c30 0 60 3 90-2s60-18 90-21 60 2 90 7l75 12 15 2v40H0Z"/></svg>